<svg version="1"
  xmlns="http://www.w3.org/2000/svg"
  width="933.333"
  height="933.333"
  viewBox="0 0 700.000000 700.000000">
  <path d="M223.4 102.5c-19.3 4.2-32.7 18.4-40 42.5-7 23.3-6.4 60.4 1.5 97.7l2.8 13.2-12.6 4.1c-38.3 12.6-64 26.8-83.1 46-16.4 16.4-21.5 26.7-21.4 43.5 0 8.4.4 11.1 2.7 16.9 6.9 17.5 23.5 34.9 47.7 49.9 15 9.2 50.1 24.4 62.8 27.2 1.7.3 3.2 1.2 3.2 1.8 0 .7-1.1 6.4-2.4 12.7-13.5 63.9-4.6 115.1 23.1 132.8 15.5 9.8 37.8 10.2 62.7 1.1 22.7-8.4 53.6-28.4 74.3-48.2l6.2-6 7.2 6.7c34.9 32.3 72.2 52.3 101.4 54.3 20.1 1.3 36.3-6.4 46.8-22.5 10.4-15.8 14.6-32.3 15.4-60.4.7-23.7-1.2-41.5-7.3-69.9-.6-2.5-.2-2.7 10.8-6.3 32.1-10.6 62.1-26.9 79.6-43.1 21.9-20.3 29.6-42.1 22.4-62.7-7-19.8-28.8-40.2-60.1-56.2-12-6.1-34.8-15.3-46.3-18.7-4.3-1.3-7.8-2.8-7.8-3.4 0-.7.9-5.4 2-10.6 3.8-18.5 5.1-29.7 5.7-49.1.9-29.9-1.9-47.1-10.2-64.5-10-20.7-24.9-30.3-46.8-30.3-30.2 0-66.4 18.8-107.9 56.1l-5.7 5.2-6.2-5.8c-16.7-15.4-39.5-31.5-57.6-40.8-24.5-12.5-45.7-17-62.9-13.2zm31.4 26c4.5 1.4 11.2 3.9 14.9 5.6 15.9 7.1 40.9 24.3 56.3 38.7l7.5 7-4.6 4.9c-7.8 8.2-21.8 25.1-32.7 39.8l-10.5 14-7.6.8c-13.2 1.3-41.7 5.6-54.3 8.2-9.1 1.8-12.4 2.2-12.9 1.3-.9-1.4-5.4-24.9-7-36.8-2-14.4-1.6-41.8.9-53.3 3.8-18.1 10.9-28.9 21-32.2 6.6-2.1 18.6-1.3 29 2zm220.7-1.6c9.5 4.3 16.7 17.5 19.9 36 1.9 11 2.1 35.4.5 49.9-1.2 11.5-5.7 35.4-6.8 36.5-.5.5-6.4-.3-13.2-1.7-14.1-2.9-41.5-7.1-53.4-8.1l-8-.7-7-9.7c-9.2-12.6-20.8-27.2-31.7-39.8l-8.8-10.1 9.3-8.2c23.1-20.6 48.5-36.7 67.7-42.8 9.1-2.9 9.5-3 19-3.1 6.3 0 9.6.4 12.5 1.8zm-115.8 80.3c11.3 13.1 22.7 27.8 22.1 28.4-.3.2-14.8.3-32.3.2l-31.9-.3 8.9-11c10.6-13.3 22.8-27.3 23.7-27.4.3-.1 4.6 4.5 9.5 10.1zm42.2 55.7c7.8 10.4 32.7 52.4 44.5 75.2l6 11.5-8.7 16.7c-9.9 19-22.2 40.3-34.1 58.9l-8 12.7-6.6.8c-8.3 1-87.2 1-92.3 0-3.6-.8-4.4-1.7-12.2-13.6-11.3-17.5-24.1-39.4-34.2-58.8l-8.4-16.1 5.7-11.4c11-22 23.2-43.2 37.6-65.5l8-12.2 8.1-.4c4.5-.2 27.3-.3 50.6-.2l42.3.1 1.7 2.3zm-143.4 17.6c-5.2 8.6-12.5 21.2-16.1 28.1-3.7 6.8-7.1 12.1-7.5 11.7-1.9-2.2-17.5-46-16.6-46.9 1.1-1.1 39.9-8.1 46.4-8.3l3.1-.1-9.3 15.5zm187.3-14c20.2 3.2 36.2 6.8 36.2 8.1 0 3.1-15 43.8-16.8 45.6-.4.4-3.2-3.9-6.2-9.5-3-5.5-10.3-18.1-16.2-27.9-8.6-14.5-10.2-17.8-8.7-17.8 1.1 0 6.3.7 11.7 1.5zm-247.8 24c4.2 12.8 12.8 35.1 18.7 48.4l4.7 10.3-1.7 4.2c-.8 2.2-4.1 10.2-7.3 17.6-3.2 7.4-8.6 21.6-12 31.5-7.4 21.3-5.2 20.2-24.9 13-48-17.3-81.5-44.9-81.5-66.9 0-6.7 5.7-17.1 14-25.4 11.3-11.5 32.4-24.3 54.6-33.3 11.5-4.7 30.8-10.8 31.5-10.1.4.4 2.1 5.2 3.9 10.7zm318.2-7.9c20 6.3 44 17.4 58.8 27.2 10.9 7.2 23.9 20 27.6 27.2 4.1 8 4.1 17.3-.1 25-4.1 7.7-18.2 21.5-29.5 28.9-15.1 10-47.6 24.7-63.1 28.6-2.5.6-2.7.2-8.8-16.7-3.5-9.5-9.9-25.5-14.3-35.5l-7.9-18.2 5-11.4c6.2-13.9 14.9-36.2 18.6-47.7 3.2-9.7 3.3-10 4.5-10 .5 0 4.6 1.2 9.2 2.6zm-44.4 110.6c8 20.3 12.3 32.6 11.4 33.2-2.1 1.3-48.4 9.1-50.1 8.4-.5-.1 3.2-7.1 8.3-15.4 5-8.3 12.3-21 16.1-28.2 3.9-7.2 7.3-13.2 7.6-13.2.3 0 3.3 6.9 6.7 15.2zM241 388.5c5.7 10.6 15.2 27 22.5 38.8 2.6 4.2 4.6 7.9 4.4 8.1-.6.4-23.3-2.8-37.5-5.5-10.7-1.9-12.4-2.5-12.4-4.1 0-3.3 16.2-46.8 17.5-46.8.2 0 2.6 4.3 5.5 9.5zm250 62c0 .3 1.1 6 2.4 12.8 3.8 19.3 4.9 32.8 4.3 52.5-.6 19.7-2.5 29.9-7.7 40.6-6.1 12.7-12.4 17.4-24.4 18.3-22.1 1.5-60.8-18.9-91.3-48.1l-6.3-6.1 9.1-10.5c7.6-8.8 34.1-43 36.6-47.4.5-.9 5.8-1.9 15.8-3 14.2-1.6 45.9-6.7 53.5-8.5 4.1-1 8-1.3 8-.6zM234.5 455c16.8 2.8 42.3 6 48.2 6 2.7 0 4 1.3 11.9 11.7 10.7 14.4 18 23.5 30.1 37.5l9.3 10.7-4.8 4.5c-15.8 14.8-37.9 30.5-53.7 38.1-22.6 11-42.1 13.9-53.2 8.1-8.3-4.3-15.3-17.4-18.4-34.6-1.7-9.5-1.7-38.4-.1-50.5 1.5-10.4 6-33.4 6.9-34.8.3-.5 2-.6 3.7-.3 1.7.4 10.8 2 20.1 3.6zm148.5 8.8c0 1.6-30.1 38.4-31.9 39-1.3.4-33.1-37.1-33.1-38.9 0-.2 14.6-.4 32.5-.4s32.5.1 32.5.3z"/>
  <path d="M339.3 300.5c-8.9 1.9-17.9 7-24.8 14-19.6 19.7-19.2 51.1.9 70.3 16.2 15.6 38.8 18.7 58.7 8.1 7.1-3.8 16.7-13.6 20.3-20.7 14.8-29.3-2.1-64.9-34.1-71.7-8.2-1.8-12.9-1.8-21 0z"/>
</svg>
